<svg width="115" height="49" viewBox="0 0 115 49" fill="none" xmlns="http://www.w3.org/2000/svg">
<rect x="0.5" y="0.5" width="114" height="48" rx="2.5" fill="white" stroke="#F2F2F2"/>
<path d="M46.4221 17.7038H41.6238C41.2954 17.7038 41.0162 17.9408 40.965 18.2628L39.0243 30.4856C38.9857 30.7267 39.1738 30.9442 39.42 30.9442H41.7108C42.0392 30.9442 42.3184 30.7072 42.3696 30.3845L42.893 27.0878C42.9435 26.7652 43.2235 26.5282 43.5511 26.5282H45.0701C48.2309 26.5282 50.0551 25.0088 50.5315 21.9979C50.7462 20.6806 50.5406 19.6456 49.9197 18.9208C49.2377 18.1248 48.0281 17.7038 46.4221 17.7038ZM46.9757 22.1679C46.7133 23.8783 45.3978 23.8783 44.1258 23.8783H43.4017L43.9097 20.6841C43.9398 20.491 44.1082 20.3488 44.3047 20.3488H44.6365C45.503 20.3488 46.3204 20.3489 46.7428 20.8395C46.9947 21.1322 47.0718 21.5672 46.9757 22.1679Z" fill="#253B80"/>
<path d="M60.7652 22.1129H58.4674C58.2716 22.1129 58.1026 22.2551 58.0724 22.4481L57.9707 23.0865L57.81 22.8552C57.3125 22.138 56.2033 21.8982 55.0961 21.8982C52.557 21.8982 50.3883 23.8086 49.966 26.4885C49.7464 27.8252 50.0586 29.1035 50.8219 29.9949C51.5221 30.8145 52.524 31.1561 53.7161 31.1561C55.762 31.1561 56.8965 29.8492 56.8965 29.8492L56.794 30.4835C56.7555 30.726 56.9435 30.9435 57.1884 30.9435H59.2581C59.5872 30.9435 59.865 30.7065 59.9169 30.3838L61.1588 22.5715C61.1981 22.331 61.0107 22.1129 60.7652 22.1129ZM57.5623 26.5554C57.3406 27.8594 56.2987 28.7348 54.9699 28.7348C54.3026 28.7348 53.7694 28.5222 53.427 28.1194C53.0874 27.7193 52.9583 27.1499 53.0664 26.5156C53.2734 25.2228 54.3328 24.3188 55.6413 24.3188C56.2938 24.3188 56.8242 24.5342 57.1736 24.9405C57.5237 25.351 57.6626 25.9239 57.5623 26.5554Z" fill="#253B80"/>
<path d="M73.0028 22.1129H70.6938C70.4735 22.1129 70.2665 22.2216 70.1416 22.4035L66.957 27.0635L65.6071 22.5854C65.5222 22.3052 65.2619 22.1129 64.9672 22.1129H62.6982C62.4224 22.1129 62.2309 22.3805 62.3186 22.6384L64.8619 30.0528L62.4709 33.4059C62.2828 33.67 62.4723 34.0331 62.7971 34.0331H65.1033C65.3222 34.0331 65.5271 33.9272 65.6513 33.7488L73.3311 22.7367C73.5149 22.4732 73.3262 22.1129 73.0028 22.1129Z" fill="#253B80"/>
<path d="M80.6475 17.7038H75.8484C75.5208 17.7038 75.2415 17.9408 75.1903 18.2628L73.2497 30.4856C73.2111 30.7267 73.3991 30.9442 73.644 30.9442H76.1066C76.3354 30.9442 76.5311 30.7783 76.5669 30.5525L77.1177 27.0878C77.1682 26.7652 77.4481 26.5282 77.7758 26.5282H79.2941C82.4555 26.5282 84.279 25.0088 84.7561 21.9979C84.9715 20.6806 84.7645 19.6456 84.1436 18.9208C83.4623 18.1248 82.2535 17.7038 80.6475 17.7038ZM81.201 22.1679C80.9393 23.8783 79.6238 23.8783 78.3511 23.8783H77.6277L78.1364 20.6841C78.1666 20.491 78.3336 20.3488 78.5307 20.3488H78.8626C79.7284 20.3488 80.5464 20.3489 80.9688 20.8395C81.2207 21.1322 81.2972 21.5672 81.201 22.1679Z" fill="#179BD7"/>
<path d="M94.99 22.1129H92.6936C92.4964 22.1129 92.3287 22.2551 92.2993 22.4481L92.1975 23.0865L92.0362 22.8552C91.5387 22.138 90.4302 21.8982 89.323 21.8982C86.7839 21.8982 84.6159 23.8086 84.1935 26.4885C83.9746 27.8252 84.2855 29.1035 85.0488 29.9949C85.7504 30.8145 86.7509 31.1561 87.943 31.1561C89.9889 31.1561 91.1234 29.8492 91.1234 29.8492L91.0209 30.4835C90.9824 30.726 91.1704 30.9435 91.4167 30.9435H93.4857C93.8134 30.9435 94.0926 30.7065 94.1438 30.3838L95.3864 22.5715C95.4243 22.331 95.2362 22.1129 94.99 22.1129ZM91.7871 26.5554C91.5668 27.8594 90.5235 28.7348 89.1946 28.7348C88.5288 28.7348 87.9942 28.5222 87.6518 28.1194C87.3122 27.7193 87.1845 27.1499 87.2912 26.5156C87.4995 25.2228 88.5576 24.3188 89.8661 24.3188C90.5186 24.3188 91.049 24.5342 91.3984 24.9405C91.7499 25.351 91.8888 25.9239 91.7871 26.5554Z" fill="#179BD7"/>
<path d="M97.6988 18.0391L95.7294 30.4856C95.6908 30.7267 95.8789 30.9442 96.1237 30.9442H98.1037C98.4327 30.9442 98.712 30.7072 98.7625 30.3845L100.705 18.1625C100.743 17.9213 100.555 17.7031 100.31 17.7031H98.0931C97.8974 17.7038 97.729 17.846 97.6988 18.0391Z" fill="#179BD7"/>
<path d="M19.0979 33.3195L19.4648 31.0041L18.6475 30.9853H14.7444L17.4568 13.9005C17.4652 13.8489 17.4926 13.8008 17.5326 13.7667C17.5726 13.7325 17.6238 13.7137 17.6771 13.7137H24.2583C26.4431 13.7137 27.9508 14.1653 28.7381 15.0568C29.1071 15.4749 29.3421 15.9119 29.4558 16.3929C29.5751 16.8975 29.5772 17.5003 29.4607 18.2356L29.4523 18.2893V18.7605L29.8213 18.9682C30.1322 19.1319 30.3791 19.3194 30.5686 19.5341C30.8843 19.8916 31.0885 20.3461 31.1748 20.8848C31.2639 21.4389 31.2344 22.0982 31.0885 22.8447C30.9201 23.7034 30.6478 24.4512 30.2802 25.0632C29.942 25.627 29.5112 26.0947 28.9998 26.4571C28.5114 26.8014 27.9312 27.0628 27.2752 27.23C26.6395 27.3945 25.9148 27.4775 25.1198 27.4775H24.6077C24.2414 27.4775 23.8857 27.6085 23.6065 27.8434C23.3265 28.0831 23.1413 28.4107 23.0845 28.7689L23.0459 28.9773L22.3976 33.0581L22.3681 33.2079C22.3604 33.2553 22.3471 33.279 22.3274 33.2951C22.3099 33.3097 22.2846 33.3195 22.2601 33.3195H19.0979Z" fill="#253B80"/>
<path d="M30.1708 18.3437C30.1511 18.4684 30.1287 18.596 30.1034 18.727C29.2355 23.1535 26.2663 24.6826 22.4741 24.6826H20.5432C20.0795 24.6826 19.6887 25.0171 19.6164 25.4716L18.6278 31.6997L18.3479 33.4651C18.3009 33.7634 18.5324 34.0325 18.8355 34.0325H22.2601C22.6656 34.0325 23.0101 33.7397 23.0739 33.3425L23.1076 33.1696L23.7524 29.1049L23.7938 28.8818C23.8569 28.4832 24.2021 28.1905 24.6077 28.1905H25.1198C28.4378 28.1905 31.0351 26.8523 31.7943 22.9799C32.1114 21.3622 31.9472 20.0115 31.1081 19.0615C30.8541 18.7751 30.5391 18.5374 30.1708 18.3437Z" fill="#179BD7"/>
<path d="M29.2629 17.984C29.1303 17.9457 28.9935 17.9108 28.8532 17.8795C28.7122 17.8488 28.5676 17.8216 28.4189 17.7979C27.8983 17.7143 27.3279 17.6746 26.7168 17.6746H21.5585C21.4315 17.6746 21.3109 17.7032 21.2028 17.7547C20.965 17.8683 20.7881 18.0921 20.7454 18.366L19.648 25.2702L19.6165 25.4716C19.6887 25.0172 20.0795 24.6826 20.5433 24.6826H22.4741C26.2663 24.6826 29.2356 23.1528 30.1035 18.727C30.1294 18.596 30.1512 18.4684 30.1708 18.3437C29.9512 18.228 29.7134 18.129 29.4573 18.0447C29.3941 18.0238 29.3289 18.0035 29.2629 17.984Z" fill="#222D65"/>
<path d="M20.7453 18.366C20.7881 18.0921 20.9649 17.8683 21.2027 17.7554C21.3115 17.7038 21.4315 17.6753 21.5585 17.6753H26.7167C27.3278 17.6753 27.8982 17.715 28.4188 17.7986C28.5676 17.8223 28.7121 17.8495 28.8531 17.8802C28.9935 17.9115 29.1303 17.9464 29.2629 17.9847C29.3288 18.0042 29.3941 18.0245 29.4579 18.0447C29.714 18.129 29.9519 18.2287 30.1715 18.3437C30.4297 16.7079 30.1694 15.5941 29.279 14.5856C28.2975 13.4753 26.5259 13 24.259 13H17.6778C17.2148 13 16.8198 13.3345 16.7482 13.7897L14.007 31.0501C13.953 31.3916 14.2182 31.6997 14.5648 31.6997H18.6278L19.648 25.2702L20.7453 18.366Z" fill="#253B80"/>
</svg>
